<svg enable-background="new 0 0 500 500" viewBox="0 0 500 500" xmlns="http://www.w3.org/2000/svg" xmlns:xlink="http://www.w3.org/1999/xlink"><clipPath id="a"><path d="m60.8 135.2h44.5v43.9h-44.5z"/></clipPath><clipPath id="b"><path d="m246.5 382.7c-49.9 0-92.9-29.6-112.5-72.2-1.8-3.9-5.7-6.6-10.2-6.6h-95.2c-6.2 0-11.3 5-11.3 11.3 0 .8.1 1.5.3 2.2 26 102.2 118.6 177.7 228.9 177.7"/></clipPath><path d="m190.2 258.9c0-31.1 25.2-56.2 56.3-56.2s56.2 25.2 56.2 56.2c0 31.1-25.2 56.3-56.2 56.3-31.1 0-56.3-25.2-56.3-56.3z" fill="#c8e6d6"/><path d="m246.5 22.7c-110.3 0-202.8 75.6-228.9 177.7-.2.7-.3 1.5-.3 2.3 0 6.2 5 11.2 11.3 11.2h95.2c4.5 0 8.4-2.7 10.2-6.6 19.6-42.6 62.5-72.2 112.5-72.2" fill="#0aaa4f"/><path d="m246.5 382.7c-49.9 0-92.9-29.6-112.5-72.2-1.8-3.9-5.7-6.6-10.2-6.6h-95.2c-6.2 0-11.3 5-11.3 11.3 0 .8.1 1.5.3 2.2 26 102.2 118.6 177.7 228.9 177.7" fill="#04aa51"/><path d="m246.5 495.1c130.5 0 236.2-105.8 236.2-236.2h-112.5c0 68.3-55.4 123.8-123.7 123.8" fill="#c8e6d6"/><path d="m246.5 135.1c68.3 0 123.7 55.4 123.7 123.8h112.5c0-130.5-105.8-236.2-236.2-236.2" fill="#003740"/><path d="m347.2 105.6-1.2-23.7c5.1-.2 10.1 1.2 14.3 4 10.8 7.2 13.7 22.1 6.5 32.9 0 0 0 .1-.1.1z" fill="#f2f2f2"/><path d="m347.2 105.6-22 8.8c-2.9-7.3-2-15.5 2.3-22 4.2-6.3 11.3-10.2 18.9-10.5z" fill="#0aaa4f"/><path d="m347.2 105.6 19.7 13.2c-2.4 3.7-5.9 6.6-9.9 8.4s-8.4 2.5-12.8 1.9z" fill="#c8e6d6"/><path d="m347.2 105.6-2.3 23.6c-3.9-.4-7.6-1.7-10.9-3.9-4.1-2.7-7.2-6.6-8.9-11.2z" fill="#0aaa4f"/><path d="m402.3 164.7-18.4 14.9c-3.2-4-5-8.8-5.2-13.9-.5-13 9.7-24.1 22.7-24.6h.1z" fill="#0aaa4f"/><path d="m402.3 164.7 20.1 12.6c-4.1 6.6-11.3 10.8-19.1 11.1-7.6.3-14.9-3.1-19.6-9.1z" fill="#0aaa4f"/><path d="m402.3 164.7-1-23.7c4.4-.2 8.7.9 12.6 3 3.8 2.2 7 5.3 9.1 9.2z" fill="#f2f2f2"/><path d="m402.3 164.7 20.4-12c2 3.4 3.1 7.2 3.3 11.1.2 4.9-1.1 9.7-3.8 13.8z" fill="#c8e6d6"/><path d="m433.2 235.6c1.3 0 2.3 1 2.3 2.2v.1c0 1.2-1 2.2-2.2 2.2h-.1c-1.2 0-2.2-1-2.2-2.2v-.1c0-1.3 1-2.2 2.2-2.2z" fill="#d7ecfc"/><path d="m433.2 221.2h.1c1.7 0 3.1 1.4 3.1 3.1v.1c0 1.7-1.4 3.1-3.1 3.1h-.1c-1.7 0-3.1-1.4-3.1-3.1v-.1c0-1.7 1.4-3.1 3.1-3.1z" fill="#c8e6d6"/><path d="m418.8 234.7h.1c1.7 0 3.1 1.4 3.1 3.1v.1c0 1.7-1.4 3.1-3.1 3.1h-.1c-1.7 0-3.1-1.4-3.1-3.1v-.1c.1-1.8 1.4-3.1 3.1-3.1z" fill="#c8e6d6"/><path d="m418.8 222.1c1.3 0 2.3 1 2.3 2.2v.1c0 1.2-1 2.2-2.2 2.2h-.1c-1.2 0-2.2-1-2.2-2.2v-.1c.1-1.2 1-2.2 2.2-2.2z" fill="#d7ecfc"/><path d="m404.5 235.6c1.3 0 2.3 1 2.3 2.2v.1c0 1.2-1 2.2-2.2 2.2h-.1c-1.2 0-2.2-1-2.2-2.2v-.1c0-1.3 1-2.2 2.2-2.2z" fill="#d7ecfc"/><path d="m404.5 221.2h.1c1.7 0 3.1 1.4 3.1 3.1v.1c0 1.7-1.4 3.1-3.1 3.1h-.1c-1.7 0-3.1-1.4-3.1-3.1v-.1c0-1.7 1.4-3.1 3.1-3.1z" fill="#c8e6d6"/><circle cx="399.1" cy="278.9" fill="#fbfbfb" r="8.1"/><circle cx="426.4" cy="278.9" fill="#fafafa" r="8.1"/><circle cx="453.6" cy="278.9" fill="#fafafa" r="8.1"/><path d="m399.1 278.9h8.1c0 4.4-3.6 8.1-8.1 8.1-1.7 0-3.4-.5-4.8-1.6z" fill="#04aa51"/><path d="m426.4 278.9-.4 8.1c-4.3-.2-7.7-3.8-7.7-8.1 0-3 1.7-5.8 4.3-7.2z" fill="#0aaa4f"/><path d="m453.6 278.9 4 7c-1.2.7-2.6 1.1-4 1.1-4.4 0-8.1-3.6-8.1-8.1s3.6-8.1 8.1-8.1c2.2 0 4.4.9 5.9 2.6z" fill="#003740"/><path d="m273.4 401.8h.2c2.3 0 4.2 1.9 4.2 4.2v35c0 2.3-1.9 4.2-4.2 4.2h-.2c-2.3 0-4.2-1.9-4.2-4.2v-35c0-2.3 1.9-4.2 4.2-4.2z" fill="#f9f9f9"/><circle cx="273.5" cy="429.8" fill="#04aa51" r="4.3"/><path d="m292.8 402.6h.2c2.4 0 4.4 2 4.4 4.4v56.9c0 2.4-2 4.4-4.4 4.4h-.2c-2.4 0-4.4-2-4.4-4.4v-56.9c0-2.4 1.9-4.4 4.4-4.4z" fill="#04aa51"/><path d="m292.9 438.9c2.5 0 4.5 2 4.5 4.5v-36.2c0-2.5-2-4.5-4.5-4.5s-4.5 2-4.5 4.5v36.2c0-2.5 2-4.5 4.5-4.5z" fill="#0f3859"/><circle cx="246.3" cy="258.4" fill="#003740" r="36.7"/><path d="m246.3 315.1h.1c31.1 0 56.2-25.2 56.2-56.3 0-.2 0-.3 0-.5h-56.4v56.8z" fill="#04aa51"/><path d="m246.4 118.3c10.6 0 21.3-4.1 29.4-12.2 16.2-16.2 16.2-42.5 0-58.8-8.1-8.1-18.8-12.2-29.4-12.2" fill="#fdfdfd"/><path d="m288 75.7h-41.5l29.9 29.9c8-8.3 11.8-19.1 11.6-29.9z" fill="#3b6385"/><path d="m276.3 105.6-.5-.5-29.4-29.4v42.6c11.8 0 22.5-4.9 29.9-12.7z" fill="#c8e6d6"/><circle cx="405.3" cy="396.4" fill="none" r="74.1" stroke="#0f3858" stroke-miterlimit="10" stroke-width="1.0203"/><circle cx="405.3" cy="396.4" fill="none" r="54.7" stroke="#0f3858" stroke-miterlimit="10" stroke-width="1.0203"/><circle cx="405.3" cy="396.4" fill="none" r="33.5" stroke="#0f3858" stroke-miterlimit="10" stroke-width="1.0203"/><circle cx="405.3" cy="396.4" fill="none" r="12.3" stroke="#0f3858" stroke-miterlimit="10" stroke-width="1.0203"/><circle cx="411.1" cy="332.5" fill="#04aa51" r="7.1"/><circle cx="363.6" cy="411.2" fill="#fff" r="7.1"/><path d="m134 207.3c19.1-41.5 60.4-70.7 108.8-72.1h-197.6c-12.3 19.9-21.7 41.9-27.6 65.1-.2.7-.3 1.5-.3 2.3 0 6.2 5 11.2 11.3 11.2h95.2c4.5.1 8.4-2.6 10.2-6.5z" fill="#3b6385"/><g clip-path="url(#a)" fill="none" stroke="#c8e6d6" stroke-miterlimit="10" stroke-width="1.0203"><path d="m21 101.6h34c16.9 0 30.6 13.7 30.6 30.6v12.2c0 6.3 5.1 11.4 11.4 11.4h8.3"/><path d="m21 107.1h33.1c14.3 0 25.8 11.6 25.8 25.8v11.9c0 8.9 7.2 16.2 16.2 16.2h9.1"/><path d="m21 112.7h32.2c11.6 0 21 9.4 21 21v11.7c0 11.6 9.4 21 21 21h10"/><path d="m21 118.2h31.4c8.9 0 16.2 7.2 16.2 16.2v11.5c0 14.3 11.6 25.8 25.8 25.8h10.8"/><path d="m21 123.8h30.5c6.3 0 11.4 5.1 11.4 11.4v11.3c0 16.9 13.7 30.6 30.6 30.6h11.7"/></g><path d="m58.4 194.1h4.8v4.8h-4.8z" fill="#003740"/><path d="m69.8 194.1h4.8v4.8h-4.8z" fill="#c8e6d6"/><path d="m81.3 194.1h4.8v4.8h-4.8z" fill="#003740"/><path d="m92.7 194.1h4.8v4.8h-4.8z" fill="#003740"/><path d="m74.3 135.2v-21.1" fill="none" stroke="#fff" stroke-miterlimit="10" stroke-width="1.0203"/><circle cx="74.3" cy="121.9" fill="#fff" r="1.5"/><path d="m79.9 135.2v-15.8" fill="none" stroke="#fff" stroke-miterlimit="10" stroke-width="1.0203"/><circle cx="79.9" cy="118.8" fill="#fff" r="1.5"/><g fill="none"><path d="m129.1 135.2v9.1c0 6.3-5.1 11.4-11.4 11.4h-12.5" stroke="#c8e6d6" stroke-miterlimit="10" stroke-width="1.0203"/><path d="m214.2 72.3h-54.4c-16.9 0-30.6 13.7-30.6 30.6v32.2" stroke="#fff" stroke-miterlimit="10" stroke-width="1.0203"/><path d="m134.8 135.2v9.7c0 8.9-7.2 16.2-16.2 16.2h-13.3" stroke="#c8e6d6" stroke-miterlimit="10" stroke-width="1.0203"/><path d="m214.2 77.9h-53.6c-14.3 0-25.8 11.6-25.8 25.8v31.5" stroke="#fff" stroke-miterlimit="10" stroke-width="1.0203"/><path d="m140.4 135.2v10.2c0 11.6-9.4 21-21 21h-14.2" stroke="#c8e6d6" stroke-miterlimit="10" stroke-width="1.0203"/><path d="m214.2 83.4h-52.7c-11.6 0-21 9.4-21 21v30.8" stroke="#fff" stroke-miterlimit="10" stroke-width="1.0203"/><path d="m146.1 135.2v10.7c0 14.3-11.6 25.8-25.8 25.8h-15.1" stroke="#c8e6d6" stroke-miterlimit="10" stroke-width="1.0203"/><path d="m214.2 89h-51.9c-8.9 0-16.2 7.2-16.2 16.2v30" stroke="#fff" stroke-miterlimit="10" stroke-width="1.0203"/><path d="m151.8 135.2v11.2c0 16.9-13.7 30.6-30.6 30.6h-15.9" stroke="#c8e6d6" stroke-miterlimit="10" stroke-width="1.0203"/><path d="m214.2 94.5h-51c-6.3 0-11.4 5.1-11.4 11.4v29.3" stroke="#fff" stroke-miterlimit="10" stroke-width="1.0203"/></g><path d="m246.4 35.2c-10.6 0-21.3 4.1-29.4 12.2-16.2 16.2-16.2 42.5 0 58.8 8.1 8.1 18.8 12.2 29.4 12.2" fill="#008647"/><path d="m246.4 94.8c-10.6 0-19.1-8.6-19.1-19.1s8.6-19.1 19.1-19.1" style="fill:none;stroke:#fff;stroke-width:1.0203;stroke-linecap:round;stroke-linejoin:round;stroke-miterlimit:10"/><path d="m246.4 83.7c-4.4 0-8-3.6-8-8s3.6-8 8-8" style="fill:none;stroke:#fff;stroke-width:1.0203;stroke-linecap:round;stroke-linejoin:round;stroke-miterlimit:10"/><path d="m246.4 105.6c-16.5 0-29.9-13.4-29.9-29.9s13.4-29.9 29.9-29.9" style="fill:none;stroke:#fff;stroke-width:1.0203;stroke-linecap:round;stroke-linejoin:round;stroke-miterlimit:10"/><path d="m471.4 128.5h-65.4c-1.7 0-3-1.3-3-3v-40.7c0-1.7 1.3-3 3-3h65.4c1.7 0 3 1.3 3 3v40.7c0 1.7-1.3 3-3 3z" fill="#e6e6e6"/><path d="m476.2 123.7h-65.4c-1.7 0-3-1.3-3-3v-40.6c0-1.7 1.3-3 3-3h65.4c1.7 0 3 1.3 3 3v40.7c0 1.6-1.3 2.9-3 2.9z" fill="#04aa51"/><path d="m415.6 122.9v8.6l8.6-8.6" fill="#04aa51"/><path d="m279.6 147h45.1c1.7 0 3 1.3 3 3v27.4c0 1.7-1.3 3-3 3h-45.1c-1.7 0-3-1.3-3-3v-27.4c0-1.7 1.4-3 3-3z" fill="#e6e6e6"/><path d="m283.6 143.2h45.1c1.7 0 3 1.3 3 3v27.4c0 1.7-1.3 3-3 3h-45.1c-1.7 0-3-1.3-3-3v-27.4c0-1.6 1.4-3 3-3z" fill="#04aa51"/><path d="m326.2 143.8v-6.1l-6.2 6.1" fill="#04aa51"/><circle cx="246.3" cy="258.4" fill="#c8e6d6" r="20.4"/><circle cx="246.3" cy="258.4" fill="#c8e6d6" r="20.4"/><path d="m122.9 37.3c-4.7-.1-9 1.4-12.5 3.9.3-1.6.4-3.2.4-4.8 0-14.5-11.7-26.2-26.2-26.2s-26.2 11.7-26.2 26.2c0 .7 0 1.3.1 2-3.1-1.3-6.4-2-9.9-2-14.5 0-26.2 11.5-26.2 20.7v1.4c0 4.2 3.4 7.6 7.6 7.6h104.5c5.3 0 9.5-4.5 9.1-9.7 0-.1 0-.2 0-.2-1.2-10.5-10.1-18.7-20.7-18.9z" fill="#e6e6e6"/><path d="m246.3 295.2c20.3 0 36.7-16.4 36.7-36.7h-16.3c0 11.3-9.1 20.4-20.4 20.4" fill="#fbfbfb"/><path d="m127.8 32c-4.7-.1-9 1.4-12.5 3.9.3-1.6.4-3.2.4-4.8 0-14.5-11.7-26.2-26.2-26.2s-26.2 11.7-26.2 26.2c0 .7 0 1.3.1 2-3.1-1.3-6.4-2-9.9-2-14.5 0-26.2 11.5-26.2 20.7v1.4c0 4.2 3.4 7.6 7.6 7.6h104.5c5.3 0 9.5-4.5 9.1-9.7 0-.1 0-.2 0-.2-1.1-10.6-10.1-18.8-20.7-18.9z" fill="#c8e6d6"/><circle cx="92" cy="345.8" fill="#fafafa" r="4.7"/><circle cx="146.1" cy="362.9" fill="#fafafa" r="4.7"/><path d="m297.8 160.7 6.5 6.5 14.5-14.5" style="fill:none;stroke:#fff;stroke-width:1.0203;stroke-linecap:round;stroke-linejoin:round;stroke-miterlimit:10"/><path d="m420 88.6h36.5" style="fill:none;stroke:#fff;stroke-width:.907;stroke-linecap:round;stroke-linejoin:round;stroke-miterlimit:10"/><path d="m420 95.2h21.9" style="fill:none;stroke:#fff;stroke-width:.907;stroke-linecap:round;stroke-linejoin:round;stroke-miterlimit:10"/><path d="m420 101.7h31" style="fill:none;stroke:#fff;stroke-width:.907;stroke-linecap:round;stroke-linejoin:round;stroke-miterlimit:10"/><path d="m226.6 422.4-11.4 6.5-2 12.9 8.8 9.7 13.1-.9 7.5-10.8-3.8-12.6z" fill="#003740"/><path d="m233.1 451.8-15-.4-11.7 9.3-3 14.7 7.1 13.2 13.9 5.5 14.2-4.8 7.9-12.8-2.2-14.8z" fill="#0aaa4f"/><path d="m184.6 397.9h-26.1l-21 15.4-8.1 24.8 8.1 24.7 21 15.4h26.1l21.1-15.4 8.1-24.7-8.1-24.8z" fill="#c8e6d6"/><path d="m128.8 415.1-10.5-7.7h-13.1l-10.5 7.7-4 12.4 4 12.4 10.5 7.6h13.1l10.5-7.6 4-12.4z" fill="#003740"/><path clip-path="url(#b)" d="m175.8 378.7c-5 0-7.2-11.7-9.6-24-2.1-10.9-4.5-23.2-8.6-23.2s-6.5 12.3-8.6 23.2c-2.4 12.4-4.6 24-9.6 24s-7.2-11.7-9.6-24c-2.1-10.9-4.5-23.2-8.6-23.2s-6.5 12.3-8.6 23.2c-2.4 12.4-4.6 24-9.6 24s-7.2-11.7-9.6-24c-2.1-10.9-4.5-23.2-8.6-23.2s-6.5 12.3-8.6 23.2c-2.4 12.4-4.6 24-9.6 24s-7.2-11.7-9.6-24c-2.1-10.9-4.5-23.2-8.6-23.2s-6.5 12.3-8.6 23.2c-2.4 12.4-4.6 24-9.6 24s-7.2-11.7-9.6-24c-2.1-10.9-4.5-23.2-8.6-23.2v-1c5 0 7.2 11.7 9.6 24 2.1 10.9 4.5 23.2 8.6 23.2s6.5-12.3 8.6-23.2c2.4-12.4 4.6-24 9.6-24s7.2 11.7 9.6 24c2.1 10.9 4.5 23.2 8.6 23.2s6.5-12.3 8.6-23.2c2.4-12.4 4.6-24 9.6-24s7.2 11.7 9.6 24c2.1 10.9 4.5 23.2 8.6 23.2s6.5-12.3 8.6-23.2c2.4-12.4 4.6-24 9.6-24s7.2 11.7 9.6 24c2.1 10.9 4.5 23.2 8.6 23.2s6.5-12.3 8.6-23.2c2.4-12.4 4.6-24 9.6-24s7.2 11.7 9.6 24c2.1 10.9 4.5 23.2 8.6 23.2s6.5-12.3 8.6-23.2c2.4-12.4 4.6-24 9.6-24v1c-4.1 0-6.5 12.3-8.6 23.2-2.4 12.4-4.7 24-9.6 24z" fill="#fafafa"/></svg>