<svg width="541" height="420" viewBox="0 0 541 420" fill="none" xmlns="http://www.w3.org/2000/svg">
<path d="M60.5 300H0.5V360H60.5V300Z" stroke="#F2F2F2" stroke-miterlimit="10"/>
<path d="M120.5 300H60.5V360H120.5V300Z" stroke="#F2F2F2" stroke-miterlimit="10"/>
<path d="M180.5 300H120.5V360H180.5V300Z" stroke="#F2F2F2" stroke-miterlimit="10"/>
<path d="M240.5 300H180.5V360H240.5V300Z" stroke="#F2F2F2" stroke-miterlimit="10"/>
<path d="M300.5 300H240.5V360H300.5V300Z" stroke="#F2F2F2" stroke-miterlimit="10"/>
<path d="M360.5 300H300.5V360H360.5V300Z" stroke="#F2F2F2" stroke-miterlimit="10"/>
<path d="M420.5 300H360.5V360H420.5V300Z" stroke="#F2F2F2" stroke-miterlimit="10"/>
<path d="M480.5 300H420.5V360H480.5V300Z" stroke="#F2F2F2" stroke-miterlimit="10"/>
<path d="M540.5 300H480.5V360H540.5V300Z" stroke="#F2F2F2" stroke-miterlimit="10"/>
<path d="M60.5 240H0.5V300H60.5V240Z" stroke="#F2F2F2" stroke-miterlimit="10"/>
<path d="M120.5 240H60.5V300H120.5V240Z" stroke="#F2F2F2" stroke-miterlimit="10"/>
<path d="M180.5 240H120.5V300H180.5V240Z" stroke="#F2F2F2" stroke-miterlimit="10"/>
<path d="M240.5 240H180.5V300H240.5V240Z" stroke="#F2F2F2" stroke-miterlimit="10"/>
<path d="M300.5 240H240.5V300H300.5V240Z" stroke="#F2F2F2" stroke-miterlimit="10"/>
<path d="M360.5 240H300.5V300H360.5V240Z" stroke="#F2F2F2" stroke-miterlimit="10"/>
<path d="M420.5 240H360.5V300H420.5V240Z" stroke="#F2F2F2" stroke-miterlimit="10"/>
<path d="M480.5 240H420.5V300H480.5V240Z" stroke="#F2F2F2" stroke-miterlimit="10"/>
<path d="M540.5 240H480.5V300H540.5V240Z" stroke="#F2F2F2" stroke-miterlimit="10"/>
<path d="M60.5 180H0.5V240H60.5V180Z" stroke="#F2F2F2" stroke-miterlimit="10"/>
<path d="M120.5 180H60.5V240H120.5V180Z" stroke="#F2F2F2" stroke-miterlimit="10"/>
<path d="M180.5 180H120.5V240H180.5V180Z" stroke="#F2F2F2" stroke-miterlimit="10"/>
<path d="M240.5 180H180.5V240H240.5V180Z" stroke="#F2F2F2" stroke-miterlimit="10"/>
<path d="M300.5 180H240.5V240H300.5V180Z" stroke="#F2F2F2" stroke-miterlimit="10"/>
<path d="M360.5 180H300.5V240H360.5V180Z" stroke="#F2F2F2" stroke-miterlimit="10"/>
<path d="M420.5 180H360.5V240H420.5V180Z" stroke="#F2F2F2" stroke-miterlimit="10"/>
<path d="M480.5 180H420.5V240H480.5V180Z" stroke="#F2F2F2" stroke-miterlimit="10"/>
<path d="M540.5 180H480.5V240H540.5V180Z" stroke="#F2F2F2" stroke-miterlimit="10"/>
<path d="M120.5 120H60.5V180H120.5V120Z" stroke="#F2F2F2" stroke-miterlimit="10"/>
<path d="M180.5 120H120.5V180H180.5V120Z" stroke="#F2F2F2" stroke-miterlimit="10"/>
<path d="M240.5 120H180.5V180H240.5V120Z" stroke="#F2F2F2" stroke-miterlimit="10"/>
<path d="M300.5 120H240.5V180H300.5V120Z" stroke="#F2F2F2" stroke-miterlimit="10"/>
<path d="M360.5 120H300.5V180H360.5V120Z" stroke="#F2F2F2" stroke-miterlimit="10"/>
<path d="M420.5 120H360.5V180H420.5V120Z" stroke="#F2F2F2" stroke-miterlimit="10"/>
<path d="M480.5 120H420.5V180H480.5V120Z" stroke="#F2F2F2" stroke-miterlimit="10"/>
<path d="M180.5 60H120.5V120H180.5V60Z" stroke="#F2F2F2" stroke-miterlimit="10"/>
<path d="M240.5 60H180.5V120H240.5V60Z" stroke="#F2F2F2" stroke-miterlimit="10"/>
<path d="M300.5 60H240.5V120H300.5V60Z" stroke="#F2F2F2" stroke-miterlimit="10"/>
<path d="M360.5 60H300.5V120H360.5V60Z" stroke="#F2F2F2" stroke-miterlimit="10"/>
<path d="M420.5 60H360.5V120H420.5V60Z" stroke="#F2F2F2" stroke-miterlimit="10"/>
<path d="M290.5 150V210H380.5V150H290.5Z" fill="#003740"/>
<path d="M310.5 160H330.5" stroke="#04AA51" stroke-width="3" stroke-miterlimit="10" stroke-linecap="round"/>
<path d="M340.5 160H360.5" stroke="white" stroke-width="3" stroke-miterlimit="10" stroke-linecap="round"/>
<path d="M320.5 170H310.5" stroke="white" stroke-width="3" stroke-miterlimit="10" stroke-linecap="round"/>
<path d="M330.5 170H340.5" stroke="#04AA51" stroke-width="3" stroke-miterlimit="10" stroke-linecap="round"/>
<path d="M350.5 170H360.5" stroke="#04AA51" stroke-width="3" stroke-miterlimit="10" stroke-linecap="round"/>
<path d="M310.5 180H330.5" stroke="#04AA51" stroke-width="3" stroke-miterlimit="10" stroke-linecap="round"/>
<path d="M340.5 180H360.5" stroke="#04AA51" stroke-width="3" stroke-miterlimit="10" stroke-linecap="round"/>
<path d="M320.5 190H310.5" stroke="#04AA51" stroke-width="3" stroke-miterlimit="10" stroke-linecap="round"/>
<path d="M330.5 190H340.5" stroke="#04AA51" stroke-width="3" stroke-miterlimit="10" stroke-linecap="round"/>
<path d="M350.5 190H360.5" stroke="#04AA51" stroke-width="3" stroke-miterlimit="10" stroke-linecap="round"/>
<path d="M310.5 200H330.5" stroke="#04AA51" stroke-width="3" stroke-miterlimit="10" stroke-linecap="round"/>
<path d="M340.5 200H360.5" stroke="white" stroke-width="3" stroke-miterlimit="10" stroke-linecap="round"/>
<path d="M350.5 210H260.5V240H350.5V210Z" fill="#04AA51"/>
<path d="M380.5 120H350.5V150H380.5V120Z" fill="#04AA51"/>
<path d="M410.5 120H380.5V150H410.5V120Z" fill="#04AA51"/>
<path d="M230.5 270H200.5V300H230.5V270Z" fill="#04AA51"/>
<path d="M200.5 210V270H260.5V210H200.5Z" fill="#04AA51"/>
<path d="M260.5 210H200.5V240H260.5V210Z" fill="#003740"/>
<path fill-rule="evenodd" clip-rule="evenodd" d="M211 229.5C211 230.33 211.67 231 212.5 231C213.33 231 214 230.33 214 229.5C214 228.67 213.33 228 212.5 228C211.67 228 211 228.67 211 229.5Z" fill="#04AA51"/>
<path fill-rule="evenodd" clip-rule="evenodd" d="M229 229.5C229 230.33 229.67 231 230.5 231C231.33 231 232 230.33 232 229.5C232 228.67 231.33 228 230.5 228C229.67 228 229 228.67 229 229.5Z" fill="#04AA51"/>
<path fill-rule="evenodd" clip-rule="evenodd" d="M247 229.5C247 230.33 247.67 231 248.5 231C249.33 231 250 230.33 250 229.5C250 228.67 249.33 228 248.5 228C247.67 228 247 228.67 247 229.5Z" fill="#04AA51"/>
<path fill-rule="evenodd" clip-rule="evenodd" d="M220 220.5C220 219.67 220.67 219 221.5 219C222.33 219 223 219.67 223 220.5C223 221.33 222.33 222 221.5 222C220.67 222 220 221.33 220 220.5Z" fill="#04AA51"/>
<path fill-rule="evenodd" clip-rule="evenodd" d="M238 220.5C238 219.67 238.67 219 239.5 219C240.33 219 241 219.67 241 220.5C241 221.33 240.33 222 239.5 222C238.67 222 238 221.33 238 220.5Z" fill="#04AA51"/>
<path fill-rule="evenodd" clip-rule="evenodd" d="M211 220.5C211 221.33 211.67 222 212.5 222C213.33 222 214 221.33 214 220.5C214 219.67 213.33 219 212.5 219C211.67 219 211 219.67 211 220.5Z" fill="#C7E8D7"/>
<path fill-rule="evenodd" clip-rule="evenodd" d="M229 220.5C229 221.33 229.67 222 230.5 222C231.33 222 232 221.33 232 220.5C232 219.67 231.33 219 230.5 219C229.67 219 229 219.67 229 220.5Z" fill="#C7E8D7"/>
<path fill-rule="evenodd" clip-rule="evenodd" d="M247 220.5C247 221.33 247.67 222 248.5 222C249.33 222 250 221.33 250 220.5C250 219.67 249.33 219 248.5 219C247.67 219 247 219.67 247 220.5Z" fill="#C7E8D7"/>
<path fill-rule="evenodd" clip-rule="evenodd" d="M220 229.5C220 228.67 220.67 228 221.5 228C222.33 228 223 228.67 223 229.5C223 230.33 222.33 231 221.5 231C220.67 231 220 230.33 220 229.5Z" fill="#C7E8D7"/>
<path fill-rule="evenodd" clip-rule="evenodd" d="M238 229.5C238 228.67 238.67 228 239.5 228C240.33 228 241 228.67 241 229.5C241 230.33 240.33 231 239.5 231C238.67 231 238 230.33 238 229.5Z" fill="#C7E8D7"/>
<path d="M200.5 270V210H170.5V270H200.5Z" fill="#80CB93"/>
<path d="M182.5 255.31V224.68C182.5 223.2 183.85 222 185.5 222C187.15 222 188.5 223.21 188.5 224.68V255.31C188.5 256.79 187.15 257.99 185.5 257.99C183.85 257.99 182.5 256.79 182.5 255.31Z" fill="#003740"/>
<path d="M185.5 228C183.84 228 182.5 229.34 182.5 231C182.5 232.66 183.84 234 185.5 234C187.16 234 188.5 232.66 188.5 231C188.5 229.34 187.16 228 185.5 228Z" fill="#04AA51"/>
<path d="M350.5 120H320.5V150H350.5V120Z" fill="#04AA51"/>
<path d="M335.08 143.34C339.454 143.34 343 139.794 343 135.42C343 131.046 339.454 127.5 335.08 127.5C330.706 127.5 327.16 131.046 327.16 135.42C327.16 139.794 330.706 143.34 335.08 143.34Z" fill="#C7E8D7"/>
<path d="M420.5 190C423.13 190 425.73 190.52 428.15 191.52C430.58 192.53 432.78 194 434.64 195.86C436.5 197.72 437.97 199.92 438.98 202.35C439.98 204.78 440.5 207.38 440.5 210C440.5 212.63 439.98 215.23 438.98 217.65C437.97 220.08 436.5 222.28 434.64 224.14C432.78 226 430.58 227.47 428.15 228.48C425.72 229.48 423.12 230 420.5 230V190Z" fill="#04AA51"/>
<path d="M420.5 230C417.87 230 415.27 229.48 412.85 228.48C410.42 227.47 408.22 226 406.36 224.14C404.5 222.28 403.03 220.08 402.02 217.65C401.02 215.22 400.5 212.62 400.5 210C400.5 207.37 401.02 204.77 402.02 202.35C403.03 199.92 404.5 197.72 406.36 195.86C408.22 194 410.42 192.53 412.85 191.52C415.28 190.52 417.88 190 420.5 190V230Z" fill="#008647"/>
<path d="M310.5 280C310.5 281.31 310.24 282.61 309.74 283.83C309.24 285.04 308.5 286.15 307.57 287.07C306.64 288 305.54 288.74 304.33 289.24C303.12 289.74 301.82 290 300.5 290C299.18 290 297.89 289.74 296.67 289.24C295.46 288.74 294.35 288 293.43 287.07C292.5 286.14 291.76 285.04 291.26 283.83C290.76 282.62 290.5 281.32 290.5 280H310.5Z" fill="#3B6385"/>
<path d="M290.5 280C290.5 278.69 290.76 277.39 291.26 276.17C291.76 274.96 292.5 273.85 293.43 272.93C294.36 272 295.46 271.26 296.67 270.76C297.88 270.26 299.18 270 300.5 270C301.82 270 303.11 270.26 304.33 270.76C305.54 271.26 306.65 272 307.57 272.93C308.5 273.86 309.24 274.96 309.74 276.17C310.24 277.38 310.5 278.68 310.5 280H290.5Z" fill="#003740"/>
<path d="M420.5 270L390.5 300H420.5V270Z" fill="#003740"/>
<path d="M420.5 300H360.5V360H420.5V300Z" fill="#04AA51"/>
<path d="M390.5 334.86C393.184 334.86 395.36 332.684 395.36 330C395.36 327.316 393.184 325.14 390.5 325.14C387.816 325.14 385.64 327.316 385.64 330C385.64 332.684 387.816 334.86 390.5 334.86Z" stroke="white" stroke-linecap="round" stroke-linejoin="round"/>
<path d="M404.56 327.66H404.43C403.06 327.66 401.81 326.84 401.29 325.57L401.27 325.53C400.74 324.26 401.03 322.79 402 321.81L402.09 321.72C402.45 321.35 402.45 320.76 402.09 320.39L400.1 318.4C399.74 318.03 399.14 318.03 398.77 318.4L398.68 318.49C397.7 319.47 396.24 319.75 394.96 319.22L394.92 319.2C393.65 318.68 392.83 317.43 392.83 316.06V315.93C392.83 315.41 392.41 314.99 391.89 314.99H389.08C388.56 314.99 388.14 315.41 388.14 315.93V316.06C388.14 317.43 387.32 318.68 386.05 319.2L386.01 319.22C384.74 319.75 383.27 319.46 382.29 318.49L382.2 318.4C381.84 318.03 381.24 318.03 380.87 318.4L378.88 320.39C378.52 320.75 378.52 321.35 378.88 321.72L378.97 321.81C379.95 322.79 380.23 324.25 379.7 325.53L379.68 325.57C379.16 326.84 377.91 327.66 376.54 327.66H376.41C375.89 327.66 375.47 328.08 375.47 328.6V331.41C375.47 331.93 375.89 332.35 376.41 332.35H376.54C377.91 332.35 379.16 333.17 379.68 334.44L379.7 334.48C380.23 335.75 379.94 337.22 378.97 338.2L378.88 338.29C378.52 338.66 378.52 339.25 378.88 339.62L380.87 341.61C381.23 341.98 381.83 341.98 382.2 341.61L382.29 341.52C383.27 340.54 384.73 340.26 386.01 340.79L386.05 340.81C387.32 341.33 388.14 342.58 388.14 343.95V344.08C388.14 344.6 388.56 345.02 389.08 345.02H391.89C392.41 345.02 392.83 344.6 392.83 344.08V343.95C392.83 342.58 393.65 341.33 394.92 340.81L394.96 340.79C396.23 340.26 397.7 340.55 398.68 341.52L398.77 341.61C399.13 341.98 399.73 341.98 400.1 341.61L402.09 339.62C402.45 339.26 402.45 338.66 402.09 338.29L402 338.2C401.02 337.22 400.74 335.76 401.27 334.48L401.29 334.44C401.81 333.17 403.06 332.35 404.43 332.35H404.56C405.08 332.35 405.5 331.93 405.5 331.41V328.6C405.5 328.08 405.08 327.66 404.56 327.66Z" stroke="white" stroke-linecap="round" stroke-linejoin="round"/>
<path d="M258.22 281.48C259.73 277.84 260.5 273.94 260.5 270H230.5V300C234.44 300 238.34 299.22 241.98 297.72C245.62 296.21 248.93 294 251.71 291.22C254.5 288.43 256.71 285.13 258.21 281.49L258.22 281.48Z" fill="#C7E8D7"/>
<path d="M159.02 297.72C162.66 299.23 166.56 300 170.5 300V270H140.5C140.5 273.94 141.28 277.84 142.78 281.48C144.29 285.12 146.5 288.43 149.28 291.21C152.07 294 155.37 296.21 159.01 297.71L159.02 297.72Z" fill="#04AA51"/>
<path d="M128.15 161.52C125.72 160.51 123.12 160 120.5 160V180H140.5C140.5 177.37 139.98 174.77 138.98 172.35C137.97 169.92 136.5 167.72 134.64 165.86C132.78 164 130.58 162.53 128.15 161.52Z" fill="#04AA51"/>
<path d="M219.02 297.72C222.66 299.23 226.56 300 230.5 300V270H200.5C200.5 273.94 201.28 277.84 202.78 281.48C204.29 285.12 206.5 288.43 209.28 291.21C212.07 294 215.37 296.21 219.01 297.71L219.02 297.72Z" fill="#C7E8D7"/>
<path d="M189.02 182.28C192.66 180.77 196.56 180 200.5 180V210H170.5C170.5 206.06 171.28 202.16 172.78 198.52C174.29 194.88 176.5 191.57 179.28 188.79C182.07 186 185.37 183.79 189.01 182.29L189.02 182.28Z" fill="#04AA51"/>
<path d="M309.02 122.28C312.66 120.77 316.56 120 320.5 120V150H290.5C290.5 146.06 291.28 142.16 292.78 138.52C294.29 134.88 296.5 131.57 299.28 128.79C302.07 126 305.37 123.79 309.01 122.29L309.02 122.28Z" fill="#04AA51"/>
<path d="M438.22 138.52C439.73 142.16 440.5 146.06 440.5 150H410.5V120C414.44 120 418.34 120.78 421.98 122.28C425.62 123.79 428.93 126 431.71 128.78C434.5 131.57 436.71 134.87 438.21 138.51L438.22 138.52Z" fill="#C7E8D7"/>
<path d="M399.02 122.28C402.66 120.77 406.56 120 410.5 120V150H380.5C380.5 146.06 381.28 142.16 382.78 138.52C384.29 134.88 386.5 131.57 389.28 128.79C392.07 126 395.37 123.79 399.01 122.29L399.02 122.28Z" fill="#C7E8D7"/>
<path fill-rule="evenodd" clip-rule="evenodd" d="M230.5 180H260.5V210H230.5V180Z" fill="#008647"/>
<path d="M242.5 189H239.5V192H242.5V189Z" fill="#C7E8D7"/>
<path d="M242.5 198H239.5V201H242.5V198Z" fill="#04AA51"/>
<path d="M251.5 189H248.5V192H251.5V189Z" fill="#04AA51"/>
<path d="M251.5 198H248.5V201H251.5V198Z" fill="#C7E8D7"/>
<path d="M290.5 180H260.5V210H290.5V180Z" fill="#008647"/>
<path d="M279.02 182.28C282.66 180.77 286.56 180 290.5 180V210H260.5C260.5 206.06 261.28 202.16 262.78 198.52C264.29 194.88 266.5 191.57 269.28 188.79C272.07 186 275.37 183.79 279.01 182.29L279.02 182.28Z" fill="#C7E8D7"/>
<path d="M318.22 198.52C319.73 202.16 320.5 206.06 320.5 210H290.5V180C294.44 180 298.34 180.78 301.98 182.28C305.62 183.79 308.93 186 311.71 188.78C314.5 191.57 316.71 194.87 318.21 198.51L318.22 198.52Z" fill="#C7E8D7"/>
<path d="M361.98 237.72C358.34 239.23 354.44 240 350.5 240V210H380.5C380.5 213.94 379.72 217.84 378.22 221.48C376.71 225.12 374.5 228.43 371.72 231.21C368.93 234 365.63 236.21 361.99 237.71L361.98 237.72Z" fill="#80CB93"/>
<path d="M322.78 221.48C321.27 217.84 320.5 213.94 320.5 210H350.5V240C346.56 240 342.66 239.22 339.02 237.72C335.38 236.21 332.07 234 329.29 231.22C326.5 228.43 324.29 225.13 322.79 221.49L322.78 221.48Z" fill="#80CB93"/>
<path d="M204.5 120C204.5 106.74 193.76 96 180.5 96" stroke="#CCCCCC"/>
<path d="M198.5 120C198.5 110.06 190.44 102 180.5 102" stroke="#CCCCCC"/>
<path d="M192.5 120C192.5 113.37 187.13 108 180.5 108" stroke="#CCCCCC"/>
<path d="M186.5 120C186.5 116.69 183.81 114 180.5 114" stroke="#CCCCCC"/>
<path d="M180.5 144C193.76 144 204.5 133.26 204.5 120" stroke="#CCCCCC"/>
<path d="M180.5 138C190.44 138 198.5 129.94 198.5 120" stroke="#CCCCCC"/>
<path d="M180.5 132C187.13 132 192.5 126.63 192.5 120" stroke="#CCCCCC"/>
<path d="M180.5 126C183.81 126 186.5 123.31 186.5 120" stroke="#CCCCCC"/>
<path d="M126.5 90C126.5 103.26 137.24 114 150.5 114" stroke="#CCCCCC"/>
<path d="M132.5 90C132.5 99.94 140.56 108 150.5 108" stroke="#CCCCCC"/>
<path d="M138.5 90C138.5 96.63 143.87 102 150.5 102" stroke="#CCCCCC"/>
<path d="M144.5 90C144.5 93.31 147.19 96 150.5 96" stroke="#CCCCCC"/>
<path d="M426.5 330C426.5 343.26 437.24 354 450.5 354" stroke="#C7E8D7"/>
<path d="M432.5 330C432.5 339.94 440.56 348 450.5 348" stroke="#C7E8D7"/>
<path d="M438.5 330C438.5 336.63 443.87 342 450.5 342" stroke="#C7E8D7"/>
<path d="M444.5 330C444.5 333.31 447.19 336 450.5 336" stroke="#C7E8D7"/>
<path d="M150.5 66C137.24 66 126.5 76.74 126.5 90" stroke="#CCCCCC"/>
<path d="M150.5 72C140.56 72 132.5 80.06 132.5 90" stroke="#CCCCCC"/>
<path d="M150.5 78C143.87 78 138.5 83.37 138.5 90" stroke="#CCCCCC"/>
<path d="M150.5 84C147.19 84 144.5 86.69 144.5 90" stroke="#CCCCCC"/>
<path d="M450.5 306C437.24 306 426.5 316.74 426.5 330" stroke="#C7E8D7"/>
<path d="M450.5 312C440.56 312 432.5 320.06 432.5 330" stroke="#C7E8D7"/>
<path d="M450.5 318C443.87 318 438.5 323.37 438.5 330" stroke="#C7E8D7"/>
<path d="M450.5 324C447.19 324 444.5 326.69 444.5 330" stroke="#C7E8D7"/>
<path d="M480.5 324C493.76 324 504.5 313.26 504.5 300" stroke="#C7E8D7"/>
<path d="M480.5 318C490.44 318 498.5 309.94 498.5 300" stroke="#C7E8D7"/>
<path d="M480.5 312C487.13 312 492.5 306.63 492.5 300" stroke="#C7E8D7"/>
<path d="M480.5 306C483.81 306 486.5 303.31 486.5 300" stroke="#C7E8D7"/>
<path d="M504.5 300C504.5 286.74 493.76 276 480.5 276" stroke="#C7E8D7"/>
<path d="M498.5 300C498.5 290.06 490.44 282 480.5 282" stroke="#C7E8D7"/>
<path d="M492.5 300C492.5 293.37 487.13 288 480.5 288" stroke="#C7E8D7"/>
<path d="M486.5 300C486.5 296.69 483.81 294 480.5 294" stroke="#C7E8D7"/>
<path d="M180.5 114H150.5" stroke="#CCCCCC"/>
<path d="M180.5 108H150.5" stroke="#CCCCCC"/>
<path d="M180.5 102H150.5" stroke="#CCCCCC"/>
<path d="M180.5 96H150.5" stroke="#CCCCCC"/>
<path d="M480.5 354H450.5" stroke="#C7E8D7"/>
<path d="M480.5 348H450.5" stroke="#C7E8D7"/>
<path d="M480.5 342H450.5" stroke="#C7E8D7"/>
<path d="M480.5 336H450.5" stroke="#C7E8D7"/>
<path d="M510.5 354H480.5" stroke="#C7E8D7"/>
<path d="M510.5 348H480.5" stroke="#C7E8D7"/>
<path d="M510.5 342H480.5" stroke="#C7E8D7"/>
<path d="M510.5 336H480.5" stroke="#C7E8D7"/>
<path d="M480.5 324H450.5" stroke="#C7E8D7"/>
<path d="M480.5 318H450.5" stroke="#C7E8D7"/>
<path d="M480.5 312H450.5" stroke="#C7E8D7"/>
<path d="M480.5 306H450.5" stroke="#C7E8D7"/>
<path d="M480.5 294H450.5" stroke="#C7E8D7"/>
<path d="M480.5 288H450.5" stroke="#C7E8D7"/>
<path d="M480.5 282H450.5" stroke="#C7E8D7"/>
<path d="M480.5 276H450.5" stroke="#C7E8D7"/>
<path d="M450.5 294H420.5" stroke="#C7E8D7"/>
<path d="M450.5 288H420.5" stroke="#C7E8D7"/>
<path d="M450.5 282H420.5" stroke="#C7E8D7"/>
<path d="M450.5 276H420.5" stroke="#C7E8D7"/>
<path d="M180.5 144H150.5" stroke="#CCCCCC"/>
<path d="M180.5 138H150.5" stroke="#CCCCCC"/>
<path d="M180.5 132H150.5" stroke="#CCCCCC"/>
<path d="M180.5 126H150.5" stroke="#CCCCCC"/>
<path d="M150.5 144H120.5" stroke="#CCCCCC"/>
<path d="M150.5 138H120.5" stroke="#CCCCCC"/>
<path d="M150.5 132H120.5" stroke="#CCCCCC"/>
<path d="M150.5 126H120.5" stroke="#CCCCCC"/>
<path d="M180.5 84H150.5" stroke="#CCCCCC"/>
<path d="M180.5 78H150.5" stroke="#CCCCCC"/>
<path d="M180.5 72H150.5" stroke="#CCCCCC"/>
<path d="M180.5 66H150.5" stroke="#CCCCCC"/>
<path d="M210.5 84H180.5" stroke="#CCCCCC"/>
<path d="M210.5 78H180.5" stroke="#CCCCCC"/>
<path d="M210.5 72H180.5" stroke="#CCCCCC"/>
<path d="M210.5 66H180.5" stroke="#CCCCCC"/>
<path d="M0.5 238C5.5 238 5.5 242 10.5 242C15.5 242 15.5 238 20.5 238C25.5 238 25.5 242 30.5 242C35.5 242 35.5 238 40.5 238C45.5 238 45.5 242 50.5 242C55.5 242 55.5 238 60.5 238C65.5 238 65.5 242 70.5 242C75.5 242 75.5 238 80.5 238C85.5 238 85.5 242 90.5 242C95.5 242 95.5 238 100.5 238C105.5 238 105.5 242 110.51 242C115.52 242 115.51 238 120.52 238" stroke="#04AA51"/>
<path d="M300.5 328C304.25 328 304.25 332 308 332C311.75 332 311.75 328 315.5 328C319.25 328 319.25 332 323 332C326.75 332 326.75 328 330.5 328C334.25 328 334.25 332 338 332C341.75 332 341.75 328 345.5 328C349.25 328 349.25 332 353 332C356.75 332 356.75 328 360.5 328" stroke="#3B6385"/>
<path d="M200.5 270H170.5V300H200.5V270Z" fill="#04AA51"/>
<path d="M179.5 276C181.16 276 182.5 277.34 182.5 279C182.5 280.66 181.16 282 179.5 282C177.84 282 176.5 280.66 176.5 279C176.5 277.34 177.84 276 179.5 276Z" fill="#003740"/>
<path d="M191.5 276C193.16 276 194.5 277.34 194.5 279C194.5 280.66 193.16 282 191.5 282C189.84 282 188.5 280.66 188.5 279C188.5 277.34 189.84 276 191.5 276Z" fill="#C7E8D7"/>
<path d="M179.5 288C181.16 288 182.5 289.34 182.5 291C182.5 292.66 181.16 294 179.5 294C177.84 294 176.5 292.66 176.5 291C176.5 289.34 177.84 288 179.5 288Z" fill="#C7E8D7"/>
<path d="M191.5 288C193.16 288 194.5 289.34 194.5 291C194.5 292.66 193.16 294 191.5 294C189.84 294 188.5 292.66 188.5 291C188.5 289.34 189.84 288 191.5 288Z" fill="#003740"/>
<path d="M230.5 180H200.5V210H230.5V180Z" fill="#04AA51"/>
<path d="M230.5 180L200.5 210H230.5V180Z" fill="#008647"/>
<path d="M210.5 59.5V89.5H240.5V59.5H210.5Z" fill="#04AA51"/>
<path d="M221 65.5C221.83 65.5 222.5 66.17 222.5 67V82C222.5 82.83 221.83 83.5 221 83.5C220.17 83.5 219.5 82.83 219.5 82V67C219.5 66.17 220.17 65.5 221 65.5Z" fill="#003740"/>
<path d="M230 65.5C230.83 65.5 231.5 66.17 231.5 67V82C231.5 82.83 230.83 83.5 230 83.5C229.17 83.5 228.5 82.83 228.5 82V67C228.5 66.17 229.17 65.5 230 65.5Z" fill="#003740"/>
<path d="M221 74.5C221.83 74.5 222.5 75.17 222.5 76C222.5 76.83 221.83 77.5 221 77.5C220.17 77.5 219.5 76.83 219.5 76C219.5 75.17 220.17 74.5 221 74.5Z" fill="#C7E8D7"/>
<path d="M230 71.5C230.83 71.5 231.5 72.17 231.5 73C231.5 73.83 230.83 74.5 230 74.5C229.17 74.5 228.5 73.83 228.5 73C228.5 72.17 229.17 71.5 230 71.5Z" fill="#C7E8D7"/>
<path d="M510.5 360H540.5V330H510.5V360Z" fill="#3B6385"/>
<path d="M516.5 349.5C516.5 348.67 517.17 348 518 348H533C533.83 348 534.5 348.67 534.5 349.5C534.5 350.33 533.83 351 533 351H518C517.17 351 516.5 350.33 516.5 349.5Z" fill="#003740"/>
<path d="M516.5 340.5C516.5 339.67 517.17 339 518 339H533C533.83 339 534.5 339.67 534.5 340.5C534.5 341.33 533.83 342 533 342H518C517.17 342 516.5 341.33 516.5 340.5Z" fill="#003740"/>
<path d="M525.5 349.5C525.5 348.67 526.17 348 527 348C527.83 348 528.5 348.67 528.5 349.5C528.5 350.33 527.83 351 527 351C526.17 351 525.5 350.33 525.5 349.5Z" fill="#C7E8D7"/>
<path d="M522.5 340.5C522.5 339.67 523.17 339 524 339C524.83 339 525.5 339.67 525.5 340.5C525.5 341.33 524.83 342 524 342C523.17 342 522.5 341.33 522.5 340.5Z" fill="#C7E8D7"/>
<path d="M230.5 210H200.5V240H230.5V210Z" fill="#003740"/>
<path d="M230.5 234C217.24 234 206.5 223.26 206.5 210" stroke="#C7E8D7"/>
<path d="M230.5 225C222.22 225 215.5 218.28 215.5 210" stroke="#C7E8D7"/>
<path d="M230.5 216C227.19 216 224.5 213.31 224.5 210" stroke="#C7E8D7"/>
<path d="M260.5 210H230.5V240H260.5V210Z" fill="#003740"/>
<path d="M230.5 234C243.76 234 254.5 223.26 254.5 210" stroke="#C7E8D7"/>
<path d="M230.5 225C238.78 225 245.5 218.28 245.5 210" stroke="#C7E8D7"/>
<path d="M230.5 216C233.81 216 236.5 213.31 236.5 210" stroke="#C7E8D7"/>
<path d="M120.5 120H60.5V180H120.5V120Z" fill="#003740"/>
<path d="M80.8795 156.35L74.5195 149.93L80.9395 143.56" stroke="white" stroke-linecap="round" stroke-linejoin="round"/>
<path d="M100.12 143.65L106.48 150.07L100.06 156.44" stroke="white" stroke-linecap="round" stroke-linejoin="round"/>
<path d="M87.2695 156.34L93.7295 143.59" stroke="white" stroke-linecap="round" stroke-linejoin="round"/>
<path d="M165 137.5C166.381 137.5 167.5 136.381 167.5 135C167.5 133.619 166.381 132.5 165 132.5C163.619 132.5 162.5 133.619 162.5 135C162.5 136.381 163.619 137.5 165 137.5Z" fill="#3B6385"/>
<path d="M429.5 287.5C430.881 287.5 432 286.381 432 285C432 283.619 430.881 282.5 429.5 282.5C428.119 282.5 427 283.619 427 285C427 286.381 428.119 287.5 429.5 287.5Z" fill="#008647"/>
</svg>
